<svg width="773" height="412" viewBox="0 0 773 412" fill="none" xmlns="http://www.w3.org/2000/svg">
<path d="M41.2465 68.9296C87.0397 56.4797 100.724 83.179 112.152 62.7046C122.985 43.2975 118.061 38.5372 140.712 22.7918C163.362 7.04638 699.096 0.455272 734.549 26.8197C770.002 53.1842 799.546 351.615 734.549 376.881C669.552 402.147 75.7149 441.327 41.2465 376.881C6.77805 312.435 -4.54677 81.3795 41.2465 68.9296Z" fill="white"/>
<path d="M136.266 7.70678C115.941 -1.72031 36.3375 -3.38393 13.755 7.70678C-8.82751 18.7975 0.205576 78.6878 13.755 91.4424C27.3044 104.197 126.103 101.424 136.266 91.4424C146.428 81.4605 156.59 17.1339 136.266 7.70678Z" fill="white"/>
<path d="M92.7102 73.8932C92.707 74.3997 92.5903 74.8784 92.392 75.3266C92.1963 75.7687 91.9146 76.1664 91.5586 76.5066C90.8008 77.2234 89.8993 77.5853 88.8538 77.5853C88.3158 77.5853 87.8082 77.4913 87.3232 77.2958C86.8308 77.1076 86.4066 76.8396 86.058 76.5066C85.7019 76.1664 85.4216 75.7682 85.2246 75.3121C85.0201 74.8633 84.9216 74.3927 84.9216 73.8932V64.6699C84.9216 63.5767 85.1413 62.5342 85.5882 61.5424C86.0352 60.5433 86.6642 59.6529 87.4748 58.8783C88.2703 58.118 89.2022 57.5244 90.2478 57.0974C91.301 56.6702 92.392 56.4602 93.5361 56.4602C95.2256 56.4602 96.809 56.9163 98.3092 57.8212C99.7412 56.9163 101.325 56.4602 103.06 56.4602C104.211 56.4602 105.333 56.6702 106.424 57.0974C107.507 57.5244 108.477 58.118 109.318 58.8783C110.174 59.6529 110.833 60.5433 111.303 61.5496C111.773 62.556 112 63.5912 112 64.6699V73.8932C112 74.3927 111.901 74.8633 111.704 75.3121C111.5 75.7682 111.227 76.1664 110.871 76.5066C110.515 76.8396 110.098 77.1076 109.629 77.2958C109.151 77.4913 108.659 77.5853 108.143 77.5853C107.606 77.5853 107.098 77.4913 106.605 77.2958C106.121 77.1076 105.696 76.8396 105.34 76.5066C104.992 76.1664 104.716 75.7663 104.514 75.3121C104.314 74.8615 104.197 74.3925 104.211 73.8932L104.479 64.7891C104.485 64.5865 104.271 64.4355 104.045 64.2829C103.809 64.1244 103.393 64.1994 103.12 64.1994C102.946 64.1994 102.787 64.2428 102.643 64.3297C102.507 64.4165 102.408 64.5251 102.348 64.6699C102.348 64.764 102.275 64.8634 102.291 64.8924L102.37 73.7918C102.375 74.2985 102.267 74.7818 102.067 75.2397C101.866 75.7012 101.59 76.1013 101.234 76.4415C100.885 76.7817 100.468 77.0424 99.9912 77.2379C99.5214 77.4261 99.0214 77.5202 98.5063 77.5202C97.9758 77.5202 97.4607 77.4261 96.9757 77.2379C96.4908 77.0424 96.0666 76.7817 95.7104 76.4415C95.3392 76.0868 95.05 75.6818 94.8544 75.2325C94.6561 74.7769 94.5507 74.2985 94.5588 73.7918L94.6976 65.0747L94.6326 64.8714C94.6326 64.6759 94.411 64.5286 94.2482 64.3804C94.0852 64.2319 93.8997 64.1632 93.6876 64.1632C93.5285 64.1632 93.3617 64.1994 93.2026 64.279C93.0359 64.3514 92.9147 64.4527 92.8238 64.583C92.8238 64.6699 92.7808 64.7489 92.796 64.7779L92.7677 64.9722L92.7102 73.8932Z" fill="#FF4375"/>
<path d="M42.8796 59.472C42.8948 59.7977 42.9857 60.1018 43.1448 60.3913C43.3115 60.681 43.5311 60.9343 43.8116 61.1443C44.0767 61.3469 44.3722 61.499 44.698 61.6148C45.0238 61.7306 45.3496 61.7814 45.6753 61.7814C46.3876 61.7814 47.0012 61.5641 47.5165 61.1153C48.0392 60.6737 48.3044 60.1307 48.3195 59.4937V53.4703C48.3195 52.978 48.4256 52.5002 48.6302 52.0368C48.8348 51.5808 49.1226 51.1827 49.4939 50.8423C49.85 50.5021 50.2743 50.2415 50.7743 50.0533C51.2668 49.8722 51.782 49.7781 52.3124 49.7781C52.8503 49.7781 53.3503 49.8722 53.8352 50.0533C54.3125 50.2415 54.7369 50.5021 55.0854 50.8423C55.4414 51.1827 55.7142 51.5808 55.9112 52.0368C56.1007 52.5002 56.1991 52.978 56.1991 53.4703V58.9C56.1991 60.8764 55.6763 62.679 54.6231 64.308C53.5701 65.9368 52.1532 67.1676 50.3576 68.0219V73.7701C50.3576 74.2914 50.2591 74.7837 50.0622 75.2542C49.8652 75.7175 49.5772 76.1303 49.206 76.4849C48.8499 76.8252 48.4331 77.0931 47.9407 77.2886C47.4558 77.484 46.9482 77.5854 46.433 77.5854C45.9026 77.5854 45.3874 77.484 44.8874 77.2886C44.3949 77.0931 43.9707 76.8252 43.6145 76.4849C43.2432 76.1447 42.9554 75.7393 42.7508 75.2759C42.5387 74.8054 42.4402 74.3058 42.4402 73.7701V68.5069C40.5006 67.9133 38.8414 66.8418 37.4624 65.2854C36.8108 64.5469 36.2806 63.7288 35.8637 62.831C35.4546 61.9334 35.1895 60.9923 35.0683 60.0004C35.0228 59.8049 35 59.6022 35 59.3851V53.4703C35 52.9925 35.1062 52.522 35.3259 52.0586C35.538 51.6025 35.8259 51.1899 36.1971 50.8423C36.5532 50.5021 36.9775 50.2415 37.4776 50.0533C37.9701 49.8722 38.4852 49.7781 39.0156 49.7781C40.0839 49.7781 41.0006 50.1329 41.7735 50.8423C42.1295 51.1827 42.4023 51.5808 42.5917 52.0368C42.7811 52.5002 42.8796 52.978 42.8796 53.4703V59.472Z" fill="#FF4375"/>
<path d="M92.7102 45.1151C92.7026 45.6218 92.589 46.0997 92.392 46.5485C92.1949 46.9901 91.9146 47.3884 91.5586 47.7286C90.8008 48.4453 89.8993 48.8073 88.8538 48.8073C88.3158 48.8073 87.8082 48.7132 87.3232 48.5177C86.8308 48.3295 86.4066 48.0616 86.058 47.7286C85.7019 47.3884 85.4216 46.9901 85.2246 46.534C85.0201 46.0852 84.9216 45.6146 84.9216 45.1151V35.8919C84.9216 34.7987 85.1413 33.7562 85.5882 32.7643C86.0352 31.7652 86.6642 30.8749 87.4748 30.1002C88.2703 29.34 89.2022 28.7464 90.2478 28.3193C91.301 27.8921 92.392 27.6821 93.5361 27.6821C95.2256 27.6821 96.809 28.1382 98.3092 29.0432C99.7412 28.1382 101.325 27.6821 103.06 27.6821C104.211 27.6821 105.333 27.8921 106.424 28.3193C107.507 28.7464 108.477 29.34 109.318 30.1002C110.174 30.8749 110.833 31.7652 111.303 32.7715C111.773 33.7779 112 34.8131 112 35.8919V45.1151C112 45.6146 111.901 46.0852 111.704 46.534C111.5 46.9901 111.227 47.3884 110.871 47.7286C110.515 48.0616 110.098 48.3295 109.629 48.5177C109.151 48.7132 108.659 48.8073 108.143 48.8073C107.606 48.8073 107.098 48.7132 106.605 48.5177C106.121 48.3295 105.696 48.0616 105.34 47.7286C104.992 47.3884 104.711 46.9901 104.514 46.534C104.31 46.0852 104.211 45.6146 104.211 45.1151V36.1886C104.211 35.9859 104.184 35.8127 103.957 35.6602C103.722 35.5018 103.588 35.4471 103.293 35.4265C103.119 35.4144 102.78 35.4995 102.638 35.5878C102.5 35.6728 102.47 35.7513 102.409 35.8961C102.397 35.9919 102.367 36.1893 102.368 36.2306L102.37 45.0138C102.37 45.5202 102.267 46.0038 102.067 46.4616C101.866 46.923 101.59 47.3232 101.234 47.6634C100.885 48.0036 100.468 48.2643 99.9912 48.4598C99.5214 48.648 99.0214 48.7421 98.5063 48.7421C97.9758 48.7421 97.4607 48.648 96.9757 48.4598C96.4908 48.2643 96.0666 48.0036 95.7104 47.6634C95.3392 47.3087 95.05 46.9037 94.8544 46.4544C94.6561 45.9989 94.5595 45.5205 94.5588 45.0138L94.5435 36.318L94.5428 36.0881C94.5428 35.8927 94.411 35.7506 94.2482 35.6023C94.0852 35.4538 93.8997 35.3851 93.6876 35.3851C93.5285 35.3851 93.364 35.4258 93.2026 35.5009C93.0382 35.5777 92.9929 35.6438 92.902 35.7741C92.8761 35.8531 92.851 35.944 92.8549 35.976L92.8466 36.1669L92.7102 45.1151Z" fill="#FF4375"/>
<path d="M67.8744 38.9906C67.8744 39.3525 67.9502 39.7 68.1093 40.0186C68.2608 40.3371 68.473 40.5977 68.7382 40.8149C69.0033 41.0393 69.3216 41.2131 69.6852 41.329C70.0413 41.452 70.4277 41.5099 70.8217 41.5099C71.5793 41.5099 72.1552 41.3 72.5567 40.8728C72.9583 40.4529 73.1704 39.8375 73.2007 39.0268V31.9464C73.2007 31.4613 73.3067 30.998 73.519 30.5346C73.7387 30.0786 74.0266 29.666 74.3978 29.3184C74.7691 28.9782 75.2009 28.7103 75.7009 28.5221C76.1935 28.3266 76.7086 28.2324 77.239 28.2324C77.7542 28.2324 78.2466 28.3266 78.7164 28.5221C79.1786 28.7103 79.6029 28.9782 79.9666 29.3184C80.3226 29.6515 80.5953 30.0569 80.7924 30.5129C80.9818 30.9763 81.0803 31.4468 81.0803 31.9464V38.9037C81.0803 40.2575 80.8228 41.5533 80.3151 42.7841C79.8074 44.0148 79.0725 45.1007 78.1254 46.0492C77.1936 46.9975 76.1026 47.7287 74.8448 48.2428C73.5872 48.764 72.2461 49.0173 70.8217 49.0173C69.3897 49.0173 68.0184 48.764 66.7077 48.2428C65.3969 47.7287 64.2302 46.9975 63.2149 46.0492C62.1921 45.0863 61.3966 43.9931 60.8358 42.7624C60.2752 41.5317 59.9949 40.2358 59.9949 38.882V31.9464C59.9949 31.4468 60.0934 30.9763 60.3056 30.5129C60.5101 30.0569 60.7904 29.6515 61.1466 29.3184C61.5178 28.9782 61.9421 28.7103 62.4118 28.5221C62.8891 28.3266 63.3816 28.2324 63.8968 28.2324C64.4196 28.2324 64.9197 28.3266 65.4121 28.5221C65.8969 28.7103 66.3288 28.9782 66.7001 29.3184C67.0637 29.666 67.3517 30.0713 67.5638 30.5274C67.7684 30.9763 67.8744 31.4468 67.8744 31.9464V38.9906Z" fill="#FF4375"/>
<path d="M42.8796 30.6939C42.8948 31.0197 42.9857 31.3237 43.1448 31.6132C43.3115 31.9029 43.5311 32.1563 43.8116 32.3662C44.0767 32.5689 44.3722 32.7209 44.698 32.8367C45.0238 32.9525 45.3496 33.0033 45.6753 33.0033C46.3876 33.0033 47.0012 32.7861 47.5165 32.3372C48.0392 31.8957 48.3044 31.3527 48.3195 30.7156V24.6922C48.3195 24.1999 48.4256 23.7222 48.6302 23.2588C48.8348 22.8027 49.1226 22.4046 49.4939 22.0642C49.85 21.724 50.2743 21.4634 50.7743 21.2752C51.2668 21.0941 51.782 21 52.3124 21C52.8503 21 53.3503 21.0941 53.8352 21.2752C54.3125 21.4634 54.7369 21.724 55.0854 22.0642C55.4414 22.4046 55.7142 22.8027 55.9112 23.2588C56.1007 23.7222 56.1991 24.1999 56.1991 24.6922V30.1219C56.1991 32.0984 55.6763 33.901 54.6231 35.5299C53.5701 37.1588 52.1532 38.3895 50.3576 39.2438V44.9921C50.3576 45.5133 50.2591 46.0056 50.0622 46.4761C49.8652 46.9395 49.5772 47.3522 49.206 47.7069C48.8499 48.0471 48.4331 48.315 47.9407 48.5105C47.4558 48.706 46.9482 48.8073 46.433 48.8073C45.9026 48.8073 45.3874 48.706 44.8874 48.5105C44.3949 48.315 43.9707 48.0471 43.6145 47.7069C43.2432 47.3667 42.9554 46.9612 42.7508 46.4979C42.5387 46.0274 42.4402 45.5278 42.4402 44.9921V39.7289C40.5006 39.1352 38.8414 38.0638 37.4624 36.5073C36.8108 35.7688 36.2806 34.9507 35.8637 34.053C35.4546 33.1554 35.1895 32.2142 35.0683 31.2224C35.0228 31.0269 35 30.8242 35 30.607V24.6922C35 24.2144 35.1062 23.7439 35.3259 23.2805C35.538 22.8244 35.8259 22.4118 36.1971 22.0642C36.5532 21.724 36.9775 21.4634 37.4776 21.2752C37.9701 21.0941 38.4852 21 39.0156 21C40.0839 21 41.0006 21.3548 41.7735 22.0642C42.1295 22.4046 42.4023 22.8027 42.5917 23.2588C42.7811 23.7222 42.8796 24.1999 42.8796 24.6922V30.6939Z" fill="#FF4375"/>
<path d="M92.7102 73.9561C92.7026 74.4629 92.589 74.9407 92.392 75.3896C92.1949 75.8311 91.9146 76.2294 91.5586 76.5696C90.8008 77.2864 89.8993 77.6483 88.8538 77.6483C88.3158 77.6483 87.8082 77.5542 87.3232 77.3588C86.8308 77.1705 86.4066 76.9026 86.058 76.5696C85.7019 76.2294 85.4216 75.8311 85.2246 75.3751C85.0201 74.9263 84.9216 74.4556 84.9216 73.9561V64.7329C84.9216 63.6397 85.1413 62.5972 85.5882 61.6053C86.0352 60.6063 86.6642 59.7159 87.4748 58.9412C88.2703 58.181 89.2022 57.5874 90.2478 57.1603C91.301 56.7331 92.392 56.5232 93.5361 56.5232C95.2256 56.5232 96.809 56.9792 98.3092 57.8842C99.7412 56.9792 101.325 56.5232 103.06 56.5232C104.211 56.5232 105.333 56.7331 106.424 57.1603C107.507 57.5874 108.477 58.181 109.318 58.9412C110.174 59.7159 110.833 60.6063 111.303 61.6126C111.773 62.6189 112 63.6542 112 64.7329V73.9561C112 74.4556 111.901 74.9263 111.704 75.3751C111.5 75.8311 111.227 76.2294 110.871 76.5696C110.515 76.9026 110.098 77.1705 109.629 77.3588C109.151 77.5542 108.659 77.6483 108.143 77.6483C107.606 77.6483 107.098 77.5542 106.605 77.3588C106.121 77.1705 105.696 76.9026 105.34 76.5696C104.992 76.2294 104.711 75.8311 104.514 75.3751C104.31 74.9263 104.211 74.4556 104.211 73.9561V65.0297C104.211 64.827 104.184 64.6538 103.957 64.5013C103.722 64.3428 103.588 64.2881 103.293 64.2675C103.119 64.2554 102.78 64.3406 102.638 64.4289C102.5 64.5139 102.47 64.5924 102.409 64.7371C102.397 64.833 102.367 65.0303 102.368 65.0717L102.37 73.8548C102.37 74.3612 102.267 74.8449 102.067 75.3027C101.866 75.764 101.59 76.1642 101.234 76.5045C100.885 76.8447 100.468 77.1054 99.9912 77.3009C99.5214 77.4891 99.0214 77.5832 98.5063 77.5832C97.9758 77.5832 97.4607 77.4891 96.9757 77.3009C96.4908 77.1054 96.0666 76.8447 95.7104 76.5045C95.3392 76.1498 95.05 75.7448 94.8544 75.2955C94.6561 74.8399 94.5595 74.3615 94.5588 73.8548L94.5435 65.1591L94.5428 64.9292C94.5428 64.7337 94.411 64.5916 94.2482 64.4433C94.0852 64.2948 93.8997 64.2262 93.6876 64.2262C93.5285 64.2262 93.364 64.2668 93.2026 64.342C93.0382 64.4187 92.9929 64.4848 92.902 64.6151C92.8761 64.6942 92.851 64.785 92.8549 64.8171L92.8466 65.008L92.7102 73.9561Z" fill="#FF4375"/>
<path d="M59.9949 67.5653V64.924C59.9949 64.4244 60.0934 63.9538 60.3056 63.4905C60.5101 63.0344 60.7904 62.6291 61.1466 62.2959C61.5178 61.9556 61.9421 61.6879 62.4118 61.4996C62.8891 61.3041 63.3816 61.21 63.8968 61.21C64.4196 61.21 64.9197 61.3041 65.4121 61.4996C65.897 61.6879 66.3288 61.9556 66.7001 62.2959C67.0637 62.6435 67.3517 63.0489 67.5638 63.505C67.7684 63.9538 67.8744 64.4244 67.8744 64.924V67.5653H59.9949Z" fill="#FF4375"/>
<path d="M73.2007 67.5592V64.9179C73.2007 64.4329 73.3067 63.9694 73.5189 63.5061C73.7387 63.0501 74.0266 62.6374 74.3978 62.2898C74.7691 61.9495 75.2009 61.6819 75.7009 61.4935C76.1934 61.298 76.7086 61.2039 77.239 61.2039C77.7542 61.2039 78.2466 61.298 78.7164 61.4935C79.1786 61.6819 79.6029 61.9495 79.9665 62.2898C80.3226 62.623 80.5953 63.0283 80.7924 63.4844C80.9818 63.9477 81.0803 64.4183 81.0803 64.9179V67.5592H73.2007Z" fill="#FF4375"/>
<path d="M67.8744 67.7686C67.8744 68.1305 67.9502 68.4779 68.1093 68.7965C68.2608 69.115 68.473 69.3755 68.7382 69.593C69.0033 69.8174 69.3216 69.9911 69.6852 70.1071C70.0413 70.23 70.4277 70.2878 70.8217 70.2878C71.5793 70.2878 72.1552 70.078 72.5567 69.6507C72.9583 69.2308 73.1704 68.6156 73.2007 67.8049V66.3577H81.0803V67.6817C81.0803 69.0354 80.8228 70.3312 80.3151 71.5623C79.8074 72.7928 79.0725 73.8786 78.1254 74.827C77.1936 75.7755 76.1026 76.5067 74.8448 77.0208C73.5872 77.542 72.2461 77.7953 70.8217 77.7953C69.3897 77.7953 68.0184 77.542 66.7077 77.0208C65.3969 76.5067 64.2302 75.7755 63.2149 74.827C62.1921 73.8642 61.3966 72.7713 60.8358 71.5403C60.2752 70.3096 59.9949 69.0137 59.9949 67.66V66.3577H67.8744V67.7686Z" fill="#FF4375"/>
<path d="M61.8195 67.5653V64.924C61.8195 64.4244 61.9179 63.9538 62.1301 63.4905C62.3346 63.0344 62.6149 62.6291 62.9711 62.2959C63.3423 61.9556 63.7666 61.6879 64.2363 61.4996C64.7136 61.3041 65.2061 61.21 65.7213 61.21C66.2441 61.21 66.7442 61.3041 67.2366 61.4996C67.7215 61.6879 68.1534 61.9556 68.5246 62.2959C68.8882 62.6435 69.1762 63.0489 69.3883 63.505C69.5929 63.9538 69.699 64.4244 69.699 64.924V67.5653H61.8195Z" fill="#FF93B3"/>
<path d="M75.0252 67.5592V64.9179C75.0252 64.4329 75.1312 63.9694 75.3435 63.5061C75.5632 63.0501 75.8511 62.6374 76.2223 62.2898C76.5936 61.9495 77.0254 61.6819 77.5255 61.4935C78.018 61.298 78.5331 61.2039 79.0636 61.2039C79.5787 61.2039 80.0711 61.298 80.5409 61.4935C81.0031 61.6819 81.4274 61.9495 81.7911 62.2898C82.1471 62.623 82.4198 63.0283 82.6169 63.4844C82.8063 63.9477 82.9048 64.4183 82.9048 64.9179V67.5592H75.0252Z" fill="#FF93B3"/>
<path d="M69.699 67.6928C69.699 68.0649 69.7747 68.4219 69.9338 68.7494C70.0853 69.0769 70.2976 69.3446 70.5627 69.5682C70.8279 69.7989 71.1461 69.9775 71.5097 70.0967C71.8659 70.223 72.2522 70.2825 72.6462 70.2825C73.4039 70.2825 73.9797 70.0668 74.3813 69.6275C74.7828 69.1959 74.9949 68.5635 75.0252 67.7301V66.2424H82.9048V67.6035C82.9048 68.995 82.6473 70.3271 82.1396 71.5926C81.632 72.8575 80.897 73.9737 79.9499 74.9487C79.0181 75.9236 77.9271 76.6753 76.6694 77.2037C75.4117 77.7395 74.0707 78 72.6462 78C71.2142 78 69.8429 77.7395 68.5322 77.2037C67.2215 76.6753 66.0547 75.9236 65.0394 74.9487C64.0166 73.9589 63.2211 72.8354 62.6604 71.5701C62.0997 70.3049 61.8195 68.9727 61.8195 67.5811V66.2424H69.699V67.6928Z" fill="#FF93B3"/>
<rect x="67.2827" y="60.0234" width="6.87141" height="8.30024" rx="3.43571" transform="rotate(180 67.2827 60.0234)" fill="#FF4375"/>
<rect x="69.0978" y="60.0234" width="6.87141" height="8.30024" rx="3.43571" transform="rotate(180 69.0978 60.0234)" fill="#FF93B3"/>
<rect x="80.7662" y="60.0234" width="6.87141" height="8.30024" rx="3.43571" transform="rotate(180 80.7662 60.0234)" fill="#FF4375"/>
<rect x="82.5813" y="60.0234" width="6.87141" height="8.30024" rx="3.43571" transform="rotate(180 82.5813 60.0234)" fill="#FF93B3"/>
</svg>
