<svg width="773" height="540" viewBox="0 0 773 540" fill="none" xmlns="http://www.w3.org/2000/svg">
<path d="M47.0083 87.9643C92.441 71.5601 106.017 106.74 117.356 79.7622C128.103 54.191 123.218 47.9187 145.69 27.1723C168.162 6.42587 699.678 -2.25869 734.852 32.4796C770.025 67.2178 799.337 460.436 734.852 493.726C670.366 527.017 81.2053 578.642 47.0083 493.726C12.8113 408.811 1.57564 104.369 47.0083 87.9643Z" fill="white"/>
<path d="M136.266 7.70678C115.941 -1.72031 36.3375 -3.38393 13.755 7.70678C-8.82751 18.7975 0.205576 78.6878 13.755 91.4424C27.3044 104.197 126.103 101.424 136.266 91.4424C146.428 81.4605 156.59 17.1339 136.266 7.70678Z" fill="white"/>
<path d="M92.7102 73.8933C92.707 74.3998 92.5903 74.8785 92.392 75.3267C92.1963 75.7688 91.9146 76.1666 91.5586 76.5068C90.8008 77.2235 89.8993 77.5855 88.8538 77.5855C88.3158 77.5855 87.8082 77.4914 87.3232 77.2959C86.8308 77.1077 86.4066 76.8398 86.058 76.5068C85.7019 76.1666 85.4216 75.7683 85.2246 75.3122C85.0201 74.8634 84.9216 74.3928 84.9216 73.8933V64.67C84.9216 63.5769 85.1413 62.5344 85.5882 61.5425C86.0352 60.5434 86.6642 59.6531 87.4748 58.8784C88.2703 58.1182 89.2022 57.5246 90.2478 57.0975C91.301 56.6703 92.392 56.4603 93.5361 56.4603C95.2256 56.4603 96.809 56.9164 98.3092 57.8214C99.7412 56.9164 101.325 56.4603 103.06 56.4603C104.211 56.4603 105.333 56.6703 106.424 57.0975C107.507 57.5246 108.477 58.1182 109.318 58.8784C110.174 59.6531 110.833 60.5434 111.303 61.5497C111.773 62.5561 112 63.5913 112 64.67V73.8933C112 74.3928 111.901 74.8634 111.704 75.3122C111.5 75.7683 111.227 76.1666 110.871 76.5068C110.515 76.8398 110.098 77.1077 109.629 77.2959C109.151 77.4914 108.659 77.5855 108.143 77.5855C107.606 77.5855 107.098 77.4914 106.605 77.2959C106.121 77.1077 105.696 76.8398 105.34 76.5068C104.992 76.1666 104.716 75.7664 104.514 75.3122C104.314 74.8617 104.197 74.3926 104.211 73.8933L104.479 64.7892C104.485 64.5866 104.271 64.4356 104.045 64.283C103.809 64.1245 103.393 64.1995 103.12 64.1995C102.946 64.1995 102.787 64.243 102.643 64.3298C102.507 64.4167 102.408 64.5252 102.348 64.67C102.348 64.7641 102.275 64.8635 102.291 64.8925L102.37 73.792C102.375 74.2986 102.267 74.7819 102.067 75.2398C101.866 75.7013 101.59 76.1014 101.234 76.4416C100.885 76.7818 100.468 77.0426 99.9912 77.238C99.5214 77.4262 99.0214 77.5203 98.5063 77.5203C97.9758 77.5203 97.4607 77.4262 96.9757 77.238C96.4908 77.0426 96.0666 76.7818 95.7104 76.4416C95.3392 76.0869 95.05 75.6819 94.8544 75.2326C94.6561 74.7771 94.5507 74.2986 94.5588 73.792L94.6976 65.0748L94.6326 64.8715C94.6326 64.6761 94.411 64.5288 94.2482 64.3805C94.0852 64.232 93.8997 64.1633 93.6876 64.1633C93.5285 64.1633 93.3617 64.1995 93.2026 64.2792C93.0359 64.3515 92.9147 64.4529 92.8238 64.5832C92.8238 64.67 92.7808 64.7491 92.796 64.778L92.7677 64.9723L92.7102 73.8933Z" fill="#FF4375"/>
<path d="M42.8796 59.4721C42.8948 59.7978 42.9857 60.1018 43.1448 60.3914C43.3115 60.6811 43.5311 60.9344 43.8116 61.1443C44.0767 61.347 44.3722 61.499 44.698 61.6149C45.0238 61.7307 45.3496 61.7815 45.6753 61.7815C46.3876 61.7815 47.0012 61.5642 47.5165 61.1154C48.0392 60.6738 48.3044 60.1308 48.3195 59.4937V53.4703C48.3195 52.9781 48.4256 52.5003 48.6302 52.0369C48.8348 51.5808 49.1226 51.1827 49.4939 50.8424C49.85 50.5022 50.2743 50.2415 50.7743 50.0533C51.2668 49.8723 51.782 49.7781 52.3124 49.7781C52.8503 49.7781 53.3503 49.8723 53.8352 50.0533C54.3125 50.2415 54.7369 50.5022 55.0854 50.8424C55.4414 51.1827 55.7142 51.5808 55.9112 52.0369C56.1007 52.5003 56.1991 52.9781 56.1991 53.4703V58.9001C56.1991 60.8765 55.6763 62.6791 54.6231 64.3081C53.5701 65.9369 52.1532 67.1676 50.3576 68.022V73.7702C50.3576 74.2914 50.2591 74.7838 50.0622 75.2543C49.8652 75.7176 49.5772 76.1303 49.206 76.485C48.8499 76.8253 48.4331 77.0932 47.9407 77.2887C47.4558 77.4841 46.9482 77.5854 46.433 77.5854C45.9026 77.5854 45.3874 77.4841 44.8874 77.2887C44.3949 77.0932 43.9707 76.8253 43.6145 76.485C43.2432 76.1448 42.9554 75.7393 42.7508 75.276C42.5387 74.8055 42.4402 74.3059 42.4402 73.7702V68.507C40.5006 67.9134 38.8414 66.8419 37.4624 65.2854C36.8108 64.5469 36.2806 63.7289 35.8637 62.8311C35.4546 61.9335 35.1895 60.9923 35.0683 60.0005C35.0228 59.805 35 59.6023 35 59.3851V53.4703C35 52.9925 35.1062 52.522 35.3259 52.0586C35.538 51.6026 35.8259 51.1899 36.1971 50.8424C36.5532 50.5022 36.9775 50.2415 37.4776 50.0533C37.9701 49.8723 38.4852 49.7781 39.0156 49.7781C40.0839 49.7781 41.0006 50.133 41.7735 50.8424C42.1295 51.1827 42.4023 51.5808 42.5917 52.0369C42.7811 52.5003 42.8796 52.9781 42.8796 53.4703V59.4721Z" fill="#FF4375"/>
<path d="M92.7102 45.1151C92.7026 45.6218 92.589 46.0997 92.392 46.5485C92.1949 46.9901 91.9146 47.3884 91.5586 47.7286C90.8008 48.4453 89.8993 48.8073 88.8538 48.8073C88.3158 48.8073 87.8082 48.7132 87.3232 48.5177C86.8308 48.3295 86.4066 48.0616 86.058 47.7286C85.7019 47.3884 85.4216 46.9901 85.2246 46.534C85.0201 46.0852 84.9216 45.6146 84.9216 45.1151V35.8919C84.9216 34.7987 85.1413 33.7562 85.5882 32.7643C86.0352 31.7652 86.6642 30.8749 87.4748 30.1002C88.2703 29.34 89.2022 28.7464 90.2478 28.3193C91.301 27.8921 92.392 27.6821 93.5361 27.6821C95.2256 27.6821 96.809 28.1382 98.3092 29.0432C99.7412 28.1382 101.325 27.6821 103.06 27.6821C104.211 27.6821 105.333 27.8921 106.424 28.3193C107.507 28.7464 108.477 29.34 109.318 30.1002C110.174 30.8749 110.833 31.7652 111.303 32.7715C111.773 33.7779 112 34.8131 112 35.8919V45.1151C112 45.6146 111.901 46.0852 111.704 46.534C111.5 46.9901 111.227 47.3884 110.871 47.7286C110.515 48.0616 110.098 48.3295 109.629 48.5177C109.151 48.7132 108.659 48.8073 108.143 48.8073C107.606 48.8073 107.098 48.7132 106.605 48.5177C106.121 48.3295 105.696 48.0616 105.34 47.7286C104.992 47.3884 104.711 46.9901 104.514 46.534C104.31 46.0852 104.211 45.6146 104.211 45.1151V36.1886C104.211 35.9859 104.184 35.8127 103.957 35.6602C103.722 35.5018 103.588 35.4471 103.293 35.4265C103.119 35.4144 102.78 35.4995 102.638 35.5878C102.5 35.6728 102.47 35.7513 102.409 35.8961C102.397 35.9919 102.367 36.1893 102.368 36.2306L102.37 45.0138C102.37 45.5202 102.267 46.0038 102.067 46.4616C101.866 46.923 101.59 47.3232 101.234 47.6634C100.885 48.0036 100.468 48.2643 99.9912 48.4598C99.5214 48.648 99.0214 48.7421 98.5063 48.7421C97.9758 48.7421 97.4607 48.648 96.9757 48.4598C96.4908 48.2643 96.0666 48.0036 95.7104 47.6634C95.3392 47.3087 95.05 46.9037 94.8544 46.4544C94.6561 45.9989 94.5595 45.5205 94.5588 45.0138L94.5435 36.318L94.5428 36.0881C94.5428 35.8927 94.411 35.7506 94.2482 35.6023C94.0852 35.4538 93.8997 35.3851 93.6876 35.3851C93.5285 35.3851 93.364 35.4258 93.2026 35.5009C93.0382 35.5777 92.9929 35.6438 92.902 35.7741C92.8761 35.8531 92.851 35.944 92.8549 35.976L92.8466 36.1669L92.7102 45.1151Z" fill="#FF4375"/>
<path d="M67.8744 38.9904C67.8744 39.3524 67.9502 39.6998 68.1093 40.0185C68.2608 40.337 68.473 40.5976 68.7382 40.8147C69.0033 41.0392 69.3216 41.213 69.6852 41.3288C70.0413 41.4519 70.4277 41.5098 70.8217 41.5098C71.5793 41.5098 72.1552 41.2999 72.5567 40.8727C72.9583 40.4528 73.1704 39.8374 73.2007 39.0266V31.9463C73.2007 31.4612 73.3067 30.9979 73.519 30.5345C73.7387 30.0785 74.0266 29.6659 74.3978 29.3183C74.7691 28.978 75.2009 28.7102 75.7009 28.522C76.1935 28.3265 76.7086 28.2323 77.239 28.2323C77.7542 28.2323 78.2466 28.3265 78.7164 28.522C79.1786 28.7102 79.6029 28.978 79.9666 29.3183C80.3226 29.6513 80.5953 30.0567 80.7924 30.5128C80.9818 30.9762 81.0803 31.4467 81.0803 31.9463V38.9036C81.0803 40.2574 80.8228 41.5532 80.3151 42.7839C79.8074 44.0147 79.0725 45.1006 78.1254 46.0491C77.1936 46.9973 76.1026 47.7286 74.8448 48.2426C73.5872 48.7639 72.2461 49.0172 70.8217 49.0172C69.3897 49.0172 68.0184 48.7639 66.7077 48.2426C65.3969 47.7286 64.2302 46.9973 63.2149 46.0491C62.1921 45.0862 61.3966 43.993 60.8358 42.7623C60.2752 41.5315 59.9949 40.2356 59.9949 38.8819V31.9463C59.9949 31.4467 60.0934 30.9762 60.3056 30.5128C60.5101 30.0567 60.7904 29.6513 61.1466 29.3183C61.5178 28.978 61.9421 28.7102 62.4118 28.522C62.8891 28.3265 63.3816 28.2323 63.8968 28.2323C64.4196 28.2323 64.9197 28.3265 65.4121 28.522C65.8969 28.7102 66.3288 28.978 66.7001 29.3183C67.0637 29.6659 67.3517 30.0712 67.5638 30.5273C67.7684 30.9762 67.8744 31.4467 67.8744 31.9463V38.9904Z" fill="#FF4375"/>
<path d="M42.8796 30.6939C42.8948 31.0197 42.9857 31.3237 43.1448 31.6132C43.3115 31.9029 43.5311 32.1563 43.8116 32.3662C44.0767 32.5689 44.3722 32.7209 44.698 32.8367C45.0238 32.9525 45.3496 33.0033 45.6753 33.0033C46.3876 33.0033 47.0012 32.7861 47.5165 32.3372C48.0392 31.8957 48.3044 31.3527 48.3195 30.7156V24.6922C48.3195 24.1999 48.4256 23.7222 48.6302 23.2588C48.8348 22.8027 49.1226 22.4046 49.4939 22.0642C49.85 21.724 50.2743 21.4634 50.7743 21.2752C51.2668 21.0941 51.782 21 52.3124 21C52.8503 21 53.3503 21.0941 53.8352 21.2752C54.3125 21.4634 54.7369 21.724 55.0854 22.0642C55.4414 22.4046 55.7142 22.8027 55.9112 23.2588C56.1007 23.7222 56.1991 24.1999 56.1991 24.6922V30.1219C56.1991 32.0984 55.6763 33.901 54.6231 35.5299C53.5701 37.1588 52.1532 38.3895 50.3576 39.2438V44.9921C50.3576 45.5133 50.2591 46.0056 50.0622 46.4761C49.8652 46.9395 49.5772 47.3522 49.206 47.7069C48.8499 48.0471 48.4331 48.315 47.9407 48.5105C47.4558 48.706 46.9482 48.8073 46.433 48.8073C45.9026 48.8073 45.3874 48.706 44.8874 48.5105C44.3949 48.315 43.9707 48.0471 43.6145 47.7069C43.2432 47.3667 42.9554 46.9612 42.7508 46.4979C42.5387 46.0274 42.4402 45.5278 42.4402 44.9921V39.7289C40.5006 39.1352 38.8414 38.0638 37.4624 36.5073C36.8108 35.7688 36.2806 34.9507 35.8637 34.053C35.4546 33.1554 35.1895 32.2142 35.0683 31.2224C35.0228 31.0269 35 30.8242 35 30.607V24.6922C35 24.2144 35.1062 23.7439 35.3259 23.2805C35.538 22.8244 35.8259 22.4118 36.1971 22.0642C36.5532 21.724 36.9775 21.4634 37.4776 21.2752C37.9701 21.0941 38.4852 21 39.0156 21C40.0839 21 41.0006 21.3548 41.7735 22.0642C42.1295 22.4046 42.4023 22.8027 42.5917 23.2588C42.7811 23.7222 42.8796 24.1999 42.8796 24.6922V30.6939Z" fill="#FF4375"/>
<path d="M92.7102 73.956C92.7026 74.4627 92.589 74.9406 92.392 75.3894C92.1949 75.831 91.9146 76.2293 91.5586 76.5695C90.8008 77.2863 89.8993 77.6482 88.8538 77.6482C88.3158 77.6482 87.8082 77.5541 87.3232 77.3587C86.8308 77.1704 86.4066 76.9025 86.058 76.5695C85.7019 76.2293 85.4216 75.831 85.2246 75.375C85.0201 74.9261 84.9216 74.4555 84.9216 73.956V64.7328C84.9216 63.6396 85.1413 62.5971 85.5882 61.6052C86.0352 60.6062 86.6642 59.7157 87.4748 58.9411C88.2703 58.1809 89.2022 57.5873 90.2478 57.1602C91.301 56.733 92.392 56.5231 93.5361 56.5231C95.2256 56.5231 96.809 56.9791 98.3092 57.8841C99.7412 56.9791 101.325 56.5231 103.06 56.5231C104.211 56.5231 105.333 56.733 106.424 57.1602C107.507 57.5873 108.477 58.1809 109.318 58.9411C110.174 59.7157 110.833 60.6062 111.303 61.6125C111.773 62.6188 112 63.6541 112 64.7328V73.956C112 74.4555 111.901 74.9261 111.704 75.375C111.5 75.831 111.227 76.2293 110.871 76.5695C110.515 76.9025 110.098 77.1704 109.629 77.3587C109.151 77.5541 108.659 77.6482 108.143 77.6482C107.606 77.6482 107.098 77.5541 106.605 77.3587C106.121 77.1704 105.696 76.9025 105.34 76.5695C104.992 76.2293 104.711 75.831 104.514 75.375C104.31 74.9261 104.211 74.4555 104.211 73.956V65.0296C104.211 64.8269 104.184 64.6536 103.957 64.5011C103.722 64.3427 103.588 64.288 103.293 64.2674C103.119 64.2553 102.78 64.3404 102.638 64.4287C102.5 64.5137 102.47 64.5923 102.409 64.737C102.397 64.8329 102.367 65.0302 102.368 65.0716L102.37 73.8547C102.37 74.3611 102.267 74.8448 102.067 75.3026C101.866 75.7639 101.59 76.1641 101.234 76.5043C100.885 76.8446 100.468 77.1053 99.9912 77.3007C99.5214 77.489 99.0214 77.5831 98.5063 77.5831C97.9758 77.5831 97.4607 77.489 96.9757 77.3007C96.4908 77.1053 96.0666 76.8446 95.7104 76.5043C95.3392 76.1497 95.05 75.7447 94.8544 75.2953C94.6561 74.8398 94.5595 74.3614 94.5588 73.8547L94.5435 65.1589L94.5428 64.929C94.5428 64.7336 94.411 64.5915 94.2482 64.4432C94.0852 64.2947 93.8997 64.2261 93.6876 64.2261C93.5285 64.2261 93.364 64.2667 93.2026 64.3418C93.0382 64.4186 92.9929 64.4847 92.902 64.615C92.8761 64.6941 92.851 64.7849 92.8549 64.817L92.8466 65.0078L92.7102 73.956Z" fill="#FF4375"/>
<path d="M59.9949 67.5654V64.924C59.9949 64.4244 60.0934 63.9539 60.3056 63.4906C60.5101 63.0345 60.7904 62.6292 61.1466 62.296C61.5178 61.9556 61.9421 61.688 62.4118 61.4997C62.8891 61.3041 63.3816 61.21 63.8968 61.21C64.4196 61.21 64.9197 61.3041 65.4121 61.4997C65.897 61.688 66.3289 61.9556 66.7001 62.296C67.0637 62.6435 67.3517 63.0489 67.5638 63.5051C67.7684 63.9539 67.8745 64.4244 67.8745 64.924V67.5654H59.9949Z" fill="#FF4375"/>
<path d="M73.2007 67.5592V64.9178C73.2007 64.4328 73.3067 63.9693 73.519 63.506C73.7387 63.0501 74.0266 62.6373 74.3978 62.2898C74.7691 61.9494 75.2009 61.6818 75.7009 61.4935C76.1934 61.2979 76.7086 61.2038 77.239 61.2038C77.7542 61.2038 78.2466 61.2979 78.7164 61.4935C79.1786 61.6818 79.6029 61.9494 79.9665 62.2898C80.3226 62.6229 80.5953 63.0282 80.7924 63.4844C80.9818 63.9477 81.0803 64.4182 81.0803 64.9178V67.5592H73.2007Z" fill="#FF4375"/>
<path d="M67.8745 67.7686C67.8745 68.1306 67.9502 68.4779 68.1093 68.7966C68.2608 69.115 68.4731 69.3756 68.7382 69.5931C69.0033 69.8174 69.3216 69.9912 69.6852 70.1071C70.0413 70.2301 70.4277 70.2879 70.8217 70.2879C71.5793 70.2879 72.1552 70.078 72.5567 69.6507C72.9583 69.2309 73.1704 68.6157 73.2007 67.8049V66.3577H81.0803V67.6818C81.0803 69.0354 80.8228 70.3313 80.3151 71.5624C79.8075 72.7929 79.0725 73.8787 78.1254 74.8271C77.1936 75.7755 76.1026 76.5068 74.8448 77.0208C73.5872 77.542 72.2462 77.7954 70.8217 77.7954C69.3897 77.7954 68.0184 77.542 66.7077 77.0208C65.3969 76.5068 64.2302 75.7755 63.2149 74.8271C62.1921 73.8642 61.3966 72.7714 60.8359 71.5404C60.2752 70.3097 59.9949 69.0137 59.9949 67.66V66.3577H67.8745V67.7686Z" fill="#FF4375"/>
<path d="M61.8195 67.5654V64.924C61.8195 64.4244 61.9179 63.9539 62.1301 63.4906C62.3346 63.0345 62.6149 62.6292 62.9711 62.296C63.3423 61.9556 63.7666 61.688 64.2363 61.4997C64.7136 61.3041 65.2061 61.21 65.7213 61.21C66.2441 61.21 66.7442 61.3041 67.2366 61.4997C67.7215 61.688 68.1534 61.9556 68.5246 62.296C68.8882 62.6435 69.1762 63.0489 69.3883 63.5051C69.5929 63.9539 69.699 64.4244 69.699 64.924V67.5654H61.8195Z" fill="#FF93B3"/>
<path d="M75.0252 67.5592V64.9178C75.0252 64.4328 75.1313 63.9693 75.3435 63.506C75.5632 63.0501 75.8511 62.6373 76.2223 62.2898C76.5936 61.9494 77.0255 61.6818 77.5255 61.4935C78.018 61.2979 78.5331 61.2038 79.0636 61.2038C79.5787 61.2038 80.0711 61.2979 80.541 61.4935C81.0031 61.6818 81.4274 61.9494 81.7911 62.2898C82.1471 62.6229 82.4199 63.0282 82.6169 63.4844C82.8063 63.9477 82.9048 64.4182 82.9048 64.9178V67.5592H75.0252Z" fill="#FF93B3"/>
<path d="M69.699 67.6928C69.699 68.0649 69.7747 68.422 69.9338 68.7495C70.0853 69.0769 70.2976 69.3447 70.5627 69.5683C70.8279 69.799 71.1461 69.9776 71.5097 70.0967C71.8659 70.2231 72.2522 70.2826 72.6462 70.2826C73.4039 70.2826 73.9797 70.0668 74.3813 69.6276C74.7828 69.196 74.9949 68.5636 75.0252 67.7301V66.2425H82.9048V67.6035C82.9048 68.9951 82.6473 70.3272 82.1396 71.5927C81.632 72.8576 80.897 73.9738 79.9499 74.9487C79.0181 75.9237 77.9271 76.6754 76.6694 77.2038C75.4117 77.7396 74.0707 78 72.6462 78C71.2142 78 69.8429 77.7396 68.5322 77.2038C67.2215 76.6754 66.0547 75.9237 65.0394 74.9487C64.0166 73.9589 63.2211 72.8355 62.6604 71.5701C62.0997 70.305 61.8195 68.9728 61.8195 67.5812V66.2425H69.699V67.6928Z" fill="#FF93B3"/>
<rect x="67.2827" y="60.0235" width="6.87141" height="8.30024" rx="3.43571" transform="rotate(180 67.2827 60.0235)" fill="#FF4375"/>
<rect x="69.0978" y="60.0235" width="6.87141" height="8.30024" rx="3.43571" transform="rotate(180 69.0978 60.0235)" fill="#FF93B3"/>
<rect x="80.7662" y="60.0235" width="6.87141" height="8.30024" rx="3.43571" transform="rotate(180 80.7662 60.0235)" fill="#FF4375"/>
<rect x="82.5813" y="60.0235" width="6.87141" height="8.30024" rx="3.43571" transform="rotate(180 82.5813 60.0235)" fill="#FF93B3"/>
</svg>
